<?xml version="1.0" encoding="UTF-8"?>
<svg version="1.1" xmlns="http://www.w3.org/2000/svg" width="1280" height="1279">
<path d="M0 0 C1.4503838 -0.00697916 2.90076729 -0.01402012 4.35115051 -0.02111816 C8.95936464 -0.04039116 13.56753121 -0.04529366 18.17578125 -0.046875 C18.95994415 -0.04746414 19.74410706 -0.04805328 20.55203247 -0.04866028 C44.00027125 -0.06110165 67.18910525 0.30733936 90.48828125 3.203125 C91.74560059 3.34766113 93.00291992 3.49219727 94.29833984 3.64111328 C103.05764812 4.6503841 111.77573008 5.84958625 120.48828125 7.203125 C121.7397998 7.39712891 122.99131836 7.59113281 124.28076172 7.79101562 C172.66626949 15.50331667 220.34988287 29.15239563 265.48828125 48.203125 C266.57222168 48.65977539 267.65616211 49.11642578 268.77294922 49.58691406 C296.28139416 61.28277823 322.95480443 74.65825005 348.48828125 90.203125 C349.85001465 91.02441895 349.85001465 91.02441895 351.23925781 91.86230469 C375.98216255 106.8002461 399.51498746 123.40120361 421.79443359 141.81347656 C424.12531661 143.72575476 426.49405069 145.58869162 428.86328125 147.453125 C433.10241917 150.83163257 437.12757578 154.41121443 441.1328125 158.0625 C443.16569959 159.90996621 445.22209541 161.72019824 447.30078125 163.515625 C457.51922363 172.46930929 467.24857426 181.86042171 476.86328125 191.453125 C477.38510986 191.97236542 477.90693848 192.49160583 478.44458008 193.02658081 C483.81273278 198.37374769 489.10573408 203.74286045 494.03466797 209.50439453 C496.08301872 211.89815076 498.2256419 214.20164839 500.36328125 216.515625 C504.40230278 220.94943811 508.26335003 225.48367084 512.02734375 230.15234375 C513.82108361 232.37601174 515.62700508 234.58510978 517.44921875 236.78515625 C544.97047174 270.1112766 568.46116942 306.94237404 588.48828125 345.203125 C589.30546631 346.76160156 589.30546631 346.76160156 590.13916016 348.3515625 C605.55040059 377.95239386 617.9605275 408.55468273 628.48828125 440.203125 C629.05603271 441.9044458 629.05603271 441.9044458 629.63525391 443.64013672 C642.83288652 483.67072667 651.23363677 525.17826459 656.22399902 566.98907471 C656.39524711 568.42372233 656.56869283 569.85811001 656.74475098 571.29217529 C662.27557287 616.52397054 662.14886954 664.99441616 656.48828125 710.203125 C656.38882202 711.01430786 656.28936279 711.82549072 656.18688965 712.66125488 C645.36125039 800.63052461 618.23871914 885.70567681 545.48828125 1005.203125 C544.97555664 1005.92693359 544.46283203 1006.65074219 543.93457031 1007.39648438 C536.72538588 1017.55429019 529.30686645 1027.50636636 521.48828125 1037.203125 C520.7303125 1038.14414063 519.97234375 1039.08515625 519.19140625 1040.0546875 C516.97297223 1042.78446269 514.73602388 1045.4974382 512.48828125 1048.203125 C511.86252197 1048.95843506 511.86252197 1048.95843506 511.22412109 1049.72900391 C505.21973061 1056.96141349 499.02665473 1063.97499569 492.60546875 1070.83984375 C490.14003036 1073.4770327 487.74117847 1076.16810118 485.34375 1078.8671875 C480.53866147 1084.2163905 475.51547688 1089.32799919 470.42211914 1094.3996582 C468.920212 1095.89617425 467.42377063 1097.398008 465.92773438 1098.90039062 C461.15359157 1103.67782856 456.33001912 1108.3448112 451.19799805 1112.73852539 C448.80143084 1114.79150364 446.49354533 1116.9369868 444.17578125 1119.078125 C439.74196814 1123.11714653 435.20773541 1126.97819378 430.5390625 1130.7421875 C428.31539451 1132.53592736 426.10629647 1134.34184883 423.90625 1136.1640625 C413.71644388 1144.57605065 403.21299429 1152.48731948 392.48828125 1160.203125 C391.69437988 1160.77675781 390.90047852 1161.35039063 390.08251953 1161.94140625 C362.40454671 1181.87449621 332.91058282 1198.83742662 302.48828125 1214.203125 C301.5873877 1214.65896973 300.68649414 1215.11481445 299.75830078 1215.58447266 C227.8099934 1251.69506435 147.59637615 1272.22654571 67.48828125 1278.203125 C66.28929199 1278.2973877 65.09030273 1278.39165039 63.85498047 1278.48876953 C49.70758728 1279.47154483 35.53915562 1279.44885091 21.36328125 1279.453125 C20.69047749 1279.45356686 20.01767372 1279.45400871 19.32448196 1279.45446396 C-3.73234161 1279.46238234 -26.59027711 1278.83648218 -49.51171875 1276.203125 C-50.25587036 1276.11826843 -51.00002197 1276.03341187 -51.76672363 1275.94598389 C-118.74746631 1268.21384616 -184.2828666 1250.55461564 -245.51171875 1222.203125 C-247.01943848 1221.50799805 -247.01943848 1221.50799805 -248.55761719 1220.79882812 C-301.01883795 1196.47817316 -349.97638431 1165.28192347 -393.87304688 1127.60351562 C-395.52104021 1126.19515898 -397.17911552 1124.79955642 -398.83984375 1123.40625 C-412.39249955 1111.99184581 -425.08886053 1099.70488771 -437.63671875 1087.203125 C-438.51336182 1086.33115479 -439.39000488 1085.45918457 -440.29321289 1084.56079102 C-444.67864535 1080.16439392 -448.9188628 1075.70507352 -452.96533203 1070.99462891 C-455.2073942 1068.39717829 -457.54799324 1065.9014189 -459.88671875 1063.390625 C-465.00161626 1057.84664004 -469.80092083 1052.09550919 -474.51171875 1046.203125 C-475.44609247 1045.04905625 -476.38101693 1043.89543324 -477.31640625 1042.7421875 C-499.28239776 1015.58331579 -519.06820276 986.86938576 -536.24560547 956.44287109 C-537.4619276 954.29120522 -538.69099065 952.14726473 -539.921875 950.00390625 C-558.4125561 917.55379761 -573.30083009 883.46424488 -585.51171875 848.203125 C-585.93549805 846.98641113 -586.35927734 845.76969727 -586.79589844 844.51611328 C-601.55704218 801.71333481 -610.83734673 757.29044109 -616.24743652 712.38208008 C-616.4969661 710.32475768 -616.75599091 708.26883335 -617.01660156 706.21289062 C-622.4868832 661.34072534 -622.12877255 613.03619667 -616.51171875 568.203125 C-616.31098677 566.55013608 -616.11030533 564.89714103 -615.90966797 563.24414062 C-604.91677248 474.0016829 -576.29820645 387.17704487 -529.51171875 310.203125 C-528.95210449 309.2764502 -528.39249023 308.34977539 -527.81591797 307.39501953 C-520.75663304 295.72784627 -513.41061333 284.31899465 -505.51171875 273.203125 C-504.99609375 272.47496582 -504.48046875 271.74680664 -503.94921875 270.99658203 C-494.21685261 257.28412265 -484.04664444 244.05463556 -473.1171875 231.27734375 C-470.75307688 228.50613345 -468.47327917 225.67385311 -466.19921875 222.828125 C-460.85089627 216.25514191 -455.01018579 210.15773629 -449.19580078 204.00048828 C-446.78834845 201.43109657 -444.43413091 198.81626171 -442.07421875 196.203125 C-433.73299009 187.08453332 -425.10674171 178.03707915 -415.65234375 170.0625 C-413.22121201 167.95078702 -410.88048006 165.75609812 -408.53393555 163.55126953 C-402.06861504 157.47911622 -395.4430154 151.74266855 -388.51171875 146.203125 C-387.28511624 145.19825058 -386.05994945 144.19162205 -384.8359375 143.18359375 C-349.26281238 113.93487276 -310.54894244 89.0616948 -269.51171875 68.203125 C-268.10140609 67.47816879 -266.69123537 66.75293632 -265.28125 66.02734375 C-197.93605451 31.59610598 -123.42032027 10.62728161 0 0 Z " fill="#FEFEFE" transform="translate(619.51171875,-0.203125)"/>
<path d="M0 0 C76.23 0 152.46 0 231 0 C231.061875 26.85375 231.12375 53.7075 231.1875 81.375 C231.21481201 89.82528809 231.24212402 98.27557617 231.27026367 106.98193359 C231.28381348 117.37426758 231.28381348 117.37426758 231.28633118 122.25357056 C231.28910378 125.63034084 231.30025583 129.00696678 231.31672668 132.38369751 C231.33755981 136.71322199 231.34342703 141.04254161 231.33921683 145.37211156 C231.34009502 146.94711881 231.34589072 148.52213448 231.35764539 150.09709811 C231.60273264 184.58421052 220.2492864 216.0832908 196.12890625 240.96484375 C183.49350309 253.5052141 167.78418087 262.31632034 151 268 C150.30293945 268.24411621 149.60587891 268.48823242 148.88769531 268.73974609 C137.75984571 272.49942267 126.87865773 273.47501889 115.1875 273.5 C113.91326172 273.50628418 112.63902344 273.51256836 111.32617188 273.51904297 C84.52741523 273.16278691 60.37958668 263.05743488 40 246 C39.20335937 245.36707031 38.40671875 244.73414063 37.5859375 244.08203125 C16.32640312 226.4659153 3.84391061 198.91111066 0 172 C-0.08680703 169.58412262 -0.12201907 167.16612354 -0.12025452 164.74868774 C-0.12111053 164.04288574 -0.12196655 163.33708374 -0.12284851 162.6098938 C-0.1244968 160.24983148 -0.11899133 157.88984094 -0.11352539 155.52978516 C-0.11321891 153.80693756 -0.11335279 152.08408984 -0.11389065 150.36124229 C-0.11411611 145.75375183 -0.10832644 141.14628742 -0.10128021 136.5388031 C-0.09557906 132.21296101 -0.09531675 127.88712521 -0.09460449 123.5612793 C-0.08936025 110.91584942 -0.07539907 98.27042438 -0.0625 85.625 C-0.041875 57.36875 -0.02125 29.1125 0 0 Z " fill="#141819" transform="translate(525,249)"/>
<path d="M0 0 C1.4503838 -0.00697916 2.90076729 -0.01402012 4.35115051 -0.02111816 C8.95936464 -0.04039116 13.56753121 -0.04529366 18.17578125 -0.046875 C18.95994415 -0.04746414 19.74410706 -0.04805328 20.55203247 -0.04866028 C44.00027125 -0.06110165 67.18910525 0.30733936 90.48828125 3.203125 C91.74560059 3.34766113 93.00291992 3.49219727 94.29833984 3.64111328 C103.05764812 4.6503841 111.77573008 5.84958625 120.48828125 7.203125 C121.7397998 7.39712891 122.99131836 7.59113281 124.28076172 7.79101562 C172.66626949 15.50331667 220.34988287 29.15239563 265.48828125 48.203125 C266.57222168 48.65977539 267.65616211 49.11642578 268.77294922 49.58691406 C296.28139416 61.28277823 322.95480443 74.65825005 348.48828125 90.203125 C349.85001465 91.02441895 349.85001465 91.02441895 351.23925781 91.86230469 C375.98216255 106.8002461 399.51498746 123.40120361 421.79443359 141.81347656 C424.12531661 143.72575476 426.49405069 145.58869162 428.86328125 147.453125 C433.10241917 150.83163257 437.12757578 154.41121443 441.1328125 158.0625 C443.16569959 159.90996621 445.22209541 161.72019824 447.30078125 163.515625 C457.51922363 172.46930929 467.24857426 181.86042171 476.86328125 191.453125 C477.38510986 191.97236542 477.90693848 192.49160583 478.44458008 193.02658081 C483.81273278 198.37374769 489.10573408 203.74286045 494.03466797 209.50439453 C496.08301872 211.89815076 498.2256419 214.20164839 500.36328125 216.515625 C504.40230278 220.94943811 508.26335003 225.48367084 512.02734375 230.15234375 C513.82108361 232.37601174 515.62700508 234.58510978 517.44921875 236.78515625 C544.97047174 270.1112766 568.46116942 306.94237404 588.48828125 345.203125 C589.30546631 346.76160156 589.30546631 346.76160156 590.13916016 348.3515625 C605.55040059 377.95239386 617.9605275 408.55468273 628.48828125 440.203125 C629.05603271 441.9044458 629.05603271 441.9044458 629.63525391 443.64013672 C642.83288652 483.67072667 651.23363677 525.17826459 656.22399902 566.98907471 C656.39524711 568.42372233 656.56869283 569.85811001 656.74475098 571.29217529 C662.27557287 616.52397054 662.14886954 664.99441616 656.48828125 710.203125 C656.38882202 711.01430786 656.28936279 711.82549072 656.18688965 712.66125488 C645.36125039 800.63052461 618.23871914 885.70567681 545.48828125 1005.203125 C544.97555664 1005.92693359 544.46283203 1006.65074219 543.93457031 1007.39648438 C536.72538588 1017.55429019 529.30686645 1027.50636636 521.48828125 1037.203125 C520.7303125 1038.14414063 519.97234375 1039.08515625 519.19140625 1040.0546875 C516.97297223 1042.78446269 514.73602388 1045.4974382 512.48828125 1048.203125 C511.86252197 1048.95843506 511.86252197 1048.95843506 511.22412109 1049.72900391 C505.21973061 1056.96141349 499.02665473 1063.97499569 492.60546875 1070.83984375 C490.14003036 1073.4770327 487.74117847 1076.16810118 485.34375 1078.8671875 C480.53866147 1084.2163905 475.51547688 1089.32799919 470.42211914 1094.3996582 C468.920212 1095.89617425 467.42377063 1097.398008 465.92773438 1098.90039062 C461.15359157 1103.67782856 456.33001912 1108.3448112 451.19799805 1112.73852539 C448.80143084 1114.79150364 446.49354533 1116.9369868 444.17578125 1119.078125 C439.74196814 1123.11714653 435.20773541 1126.97819378 430.5390625 1130.7421875 C428.31539451 1132.53592736 426.10629647 1134.34184883 423.90625 1136.1640625 C413.71644388 1144.57605065 403.21299429 1152.48731948 392.48828125 1160.203125 C391.69437988 1160.77675781 390.90047852 1161.35039063 390.08251953 1161.94140625 C362.40454671 1181.87449621 332.91058282 1198.83742662 302.48828125 1214.203125 C301.5873877 1214.65896973 300.68649414 1215.11481445 299.75830078 1215.58447266 C227.8099934 1251.69506435 147.59637615 1272.22654571 67.48828125 1278.203125 C66.28929199 1278.2973877 65.09030273 1278.39165039 63.85498047 1278.48876953 C49.70758728 1279.47154483 35.53915562 1279.44885091 21.36328125 1279.453125 C20.69047749 1279.45356686 20.01767372 1279.45400871 19.32448196 1279.45446396 C-3.73234161 1279.46238234 -26.59027711 1278.83648218 -49.51171875 1276.203125 C-50.25587036 1276.11826843 -51.00002197 1276.03341187 -51.76672363 1275.94598389 C-118.74746631 1268.21384616 -184.2828666 1250.55461564 -245.51171875 1222.203125 C-247.01943848 1221.50799805 -247.01943848 1221.50799805 -248.55761719 1220.79882812 C-301.01883795 1196.47817316 -349.97638431 1165.28192347 -393.87304688 1127.60351562 C-395.52104021 1126.19515898 -397.17911552 1124.79955642 -398.83984375 1123.40625 C-412.39249955 1111.99184581 -425.08886053 1099.70488771 -437.63671875 1087.203125 C-438.51336182 1086.33115479 -439.39000488 1085.45918457 -440.29321289 1084.56079102 C-444.67864535 1080.16439392 -448.9188628 1075.70507352 -452.96533203 1070.99462891 C-455.2073942 1068.39717829 -457.54799324 1065.9014189 -459.88671875 1063.390625 C-465.00161626 1057.84664004 -469.80092083 1052.09550919 -474.51171875 1046.203125 C-475.44609247 1045.04905625 -476.38101693 1043.89543324 -477.31640625 1042.7421875 C-499.28239776 1015.58331579 -519.06820276 986.86938576 -536.24560547 956.44287109 C-537.4619276 954.29120522 -538.69099065 952.14726473 -539.921875 950.00390625 C-558.4125561 917.55379761 -573.30083009 883.46424488 -585.51171875 848.203125 C-585.93549805 846.98641113 -586.35927734 845.76969727 -586.79589844 844.51611328 C-601.55704218 801.71333481 -610.83734673 757.29044109 -616.24743652 712.38208008 C-616.4969661 710.32475768 -616.75599091 708.26883335 -617.01660156 706.21289062 C-622.4868832 661.34072534 -622.12877255 613.03619667 -616.51171875 568.203125 C-616.31098677 566.55013608 -616.11030533 564.89714103 -615.90966797 563.24414062 C-604.91677248 474.0016829 -576.29820645 387.17704487 -529.51171875 310.203125 C-528.95210449 309.2764502 -528.39249023 308.34977539 -527.81591797 307.39501953 C-520.75663304 295.72784627 -513.41061333 284.31899465 -505.51171875 273.203125 C-504.99609375 272.47496582 -504.48046875 271.74680664 -503.94921875 270.99658203 C-494.21685261 257.28412265 -484.04664444 244.05463556 -473.1171875 231.27734375 C-470.75307688 228.50613345 -468.47327917 225.67385311 -466.19921875 222.828125 C-460.85089627 216.25514191 -455.01018579 210.15773629 -449.19580078 204.00048828 C-446.78834845 201.43109657 -444.43413091 198.81626171 -442.07421875 196.203125 C-433.73299009 187.08453332 -425.10674171 178.03707915 -415.65234375 170.0625 C-413.22121201 167.95078702 -410.88048006 165.75609812 -408.53393555 163.55126953 C-402.06861504 157.47911622 -395.4430154 151.74266855 -388.51171875 146.203125 C-387.28511624 145.19825058 -386.05994945 144.19162205 -384.8359375 143.18359375 C-349.26281238 113.93487276 -310.54894244 89.0616948 -269.51171875 68.203125 C-268.10140609 67.47816879 -266.69123537 66.75293632 -265.28125 66.02734375 C-197.93605451 31.59610598 -123.42032027 10.62728161 0 0 Z M-54.76171875 16.515625 C-56.10283218 16.68377213 -56.10283218 16.68377213 -57.47103882 16.85531616 C-88.96920233 20.8105802 -120.65497746 26.18852563 -151.08349609 35.46337891 C-152.90976555 36.01974292 -154.73868141 36.56743159 -156.56884766 37.11083984 C-186.80042944 46.09391362 -215.81778485 57.18214413 -244.51171875 70.203125 C-245.46675293 70.63367188 -246.42178711 71.06421875 -247.40576172 71.5078125 C-260.46480511 77.42096719 -273.0195704 84.18084799 -285.51171875 91.203125 C-286.42985352 91.71407715 -287.34798828 92.2250293 -288.29394531 92.75146484 C-313.85603557 107.02773556 -338.4217289 123.34719878 -361.38085938 141.51904297 C-363.3769745 143.09663258 -365.38609102 144.65530733 -367.40234375 146.20703125 C-378.64141088 154.88487623 -389.37454338 164.13463387 -399.81640625 173.75390625 C-401.92325457 175.66839016 -404.05359621 177.53537375 -406.20922852 179.39355469 C-410.31316349 182.98172943 -414.1993791 186.7457409 -418.046875 190.60546875 C-418.72922714 191.28686417 -419.41157928 191.96825958 -420.11460876 192.67030334 C-421.54516312 194.10018241 -422.97447642 195.53130411 -424.40258789 196.96362305 C-426.56870949 199.13510211 -428.74012049 201.30118825 -430.91210938 203.46679688 C-432.31151862 204.86686702 -433.71061759 206.26724738 -435.109375 207.66796875 C-436.06747826 208.62303566 -436.06747826 208.62303566 -437.04493713 209.59739685 C-441.39750071 213.97229425 -445.48765209 218.52600421 -449.51171875 223.203125 C-450.55723797 224.39442041 -451.60391394 225.58470282 -452.65234375 226.7734375 C-459.36801115 234.43431242 -465.82020433 242.23864803 -472.04003906 250.30615234 C-473.61883263 252.34119316 -475.21609881 254.36074588 -476.81640625 256.37890625 C-516.469748 306.55297723 -547.15611283 363.62330514 -569.44921875 423.453125 C-569.85346069 424.535439 -569.85346069 424.535439 -570.26586914 425.63961792 C-586.71517686 469.8436581 -597.14162491 515.95051421 -602.88671875 562.703125 C-603.01409424 563.72808075 -603.14146973 564.7530365 -603.27270508 565.80905151 C-606.06324298 588.50723398 -606.70018585 610.98501392 -606.69702148 633.83496094 C-606.69694072 636.64589949 -606.70382157 639.45667332 -606.7175293 642.26757812 C-606.84085567 668.01543934 -605.72587456 693.56031822 -602.57421875 719.140625 C-602.41548984 720.51491333 -602.25729123 721.88926301 -602.09960938 723.26367188 C-601.17681139 731.09052084 -599.89083672 738.78374368 -598.28149414 746.4987793 C-597.51369214 750.19362857 -596.8068436 753.89529972 -596.1171875 757.60546875 C-580.0178046 843.5252739 -545.2508752 926.90738188 -494.51171875 998.203125 C-493.99899414 998.92693359 -493.48626953 999.65074219 -492.95800781 1000.39648438 C-485.74840209 1010.55488379 -478.32406786 1020.50079072 -470.51171875 1030.203125 C-469.77695312 1031.1209375 -469.0421875 1032.03875 -468.28515625 1032.984375 C-458.69340024 1044.84327334 -448.61131149 1056.28292629 -438.18505859 1067.41210938 C-436.3244791 1069.40353208 -434.47491812 1071.40492153 -432.625 1073.40625 C-425.68347453 1080.88505552 -418.66511038 1088.11500724 -411.0546875 1094.9140625 C-408.88235701 1096.86949363 -406.80671721 1098.86676702 -404.76171875 1100.953125 C-401.18517801 1104.58088112 -397.37906431 1107.89003669 -393.51171875 1111.203125 C-392.42164122 1112.145563 -391.33181768 1113.08829482 -390.2421875 1114.03125 C-383.44428147 1119.90191418 -376.59369475 1125.67546212 -369.51171875 1131.203125 C-368.56425781 1131.94691406 -367.61679687 1132.69070313 -366.640625 1133.45703125 C-345.87721019 1149.60635388 -324.18788431 1164.4693269 -301.60009766 1177.95019531 C-299.64826864 1179.12120145 -297.70976465 1180.31140777 -295.7734375 1181.5078125 C-226.29518895 1223.96774318 -145.90628856 1250.37772297 -44.76171875 1263.953125 C-43.72942139 1264.06881836 -42.69712402 1264.18451172 -41.63354492 1264.30371094 C-21.92963579 1266.34177935 -2.11331733 1266.44084107 17.67578125 1266.453125 C19.60292465 1266.45513412 19.60292465 1266.45513412 21.56900024 1266.45718384 C44.65300688 1266.45200128 67.52043303 1265.50059156 90.48828125 1263.203125 C92.34308105 1263.0189502 92.34308105 1263.0189502 94.23535156 1262.83105469 C107.12681961 1261.49364317 119.81649128 1259.3868461 132.51171875 1256.80078125 C135.8436727 1256.13176687 139.1810071 1255.49477153 142.51953125 1254.859375 C167.70986905 1250.02094197 192.06745464 1243.71623755 216.30273438 1235.30419922 C219.3119437 1234.26407552 222.32793775 1233.24741664 225.34765625 1232.23828125 C249.3933356 1224.14158381 272.60426686 1214.12959036 295.48828125 1203.203125 C296.37563965 1202.78208496 297.26299805 1202.36104492 298.17724609 1201.92724609 C311.39444981 1195.62209397 324.01811027 1188.42528797 336.59130859 1180.92724609 C339.31690303 1179.30512002 342.05128789 1177.69911275 344.7890625 1176.09765625 C356.37399188 1169.28634338 367.51649066 1161.96074802 378.48828125 1154.203125 C379.26478027 1153.65479004 380.0412793 1153.10645508 380.84130859 1152.54150391 C394.5124709 1142.85361469 407.68707871 1132.69641307 420.41796875 1121.8046875 C423.1656217 1119.46054799 425.97628353 1117.20429184 428.80078125 1114.953125 C435.64793271 1109.37616975 441.98682048 1103.26591882 448.38574219 1097.18798828 C450.47183078 1095.21865476 452.57429547 1093.2686512 454.68359375 1091.32421875 C461.82750264 1084.72582635 468.68002331 1078.03096796 475.1640625 1070.78125 C477.13217539 1068.59813318 479.14013022 1066.50959091 481.23828125 1064.453125 C484.86611051 1060.87651215 488.17411997 1057.06964649 491.48828125 1053.203125 C492.38375414 1052.171562 493.27961744 1051.14033782 494.17578125 1050.109375 C555.44107067 979.4139664 603.54769156 892.92257777 627.73681641 795.31933594 C628.47105868 792.27454439 629.24521289 789.24272391 630.03125 786.2109375 C634.260051 769.6547699 637.16212244 752.91778558 639.8671875 736.05859375 C640.37170181 732.92679736 640.89419555 729.79913139 641.42578125 726.671875 C642.26894419 721.5316223 642.90899531 716.37924461 643.48828125 711.203125 C643.62363281 710.03475098 643.75898437 708.86637695 643.8984375 707.66259766 C646.41036542 684.83743277 646.8087283 661.99865001 646.85709 639.05848312 C646.86316439 636.80890204 646.87440033 634.55939909 646.8868103 632.30984497 C646.98720467 611.42569431 645.81081348 590.95851692 643.48828125 570.203125 C643.30741184 568.51301354 643.12713204 566.82283875 642.94775391 565.13256836 C642.54095411 561.38019504 642.08925937 557.63493397 641.61328125 553.890625 C641.53113373 553.2441098 641.44898621 552.5975946 641.36434937 551.93148804 C637.26022215 519.92526681 630.4697203 487.74108462 620.11621094 457.13623047 C619.29647173 454.61263208 618.60499487 452.05640651 617.90917969 449.49633789 C605.09911919 403.01690104 582.68351954 357.13863918 557.48828125 316.203125 C556.97604004 315.36587891 556.46379883 314.52863281 555.93603516 313.66601562 C541.18929709 289.6511159 524.89729877 266.64371676 506.92089844 244.93994141 C504.85945993 242.44078095 502.83411418 239.91267129 500.80078125 237.390625 C497.03223427 232.78539144 493.08039821 228.37438966 489.04296875 224.00390625 C487.04321043 221.81151066 485.08303224 219.59856181 483.13671875 217.359375 C479.58682671 213.28997488 475.93672382 209.32504539 472.23828125 205.390625 C471.26266235 204.35240601 471.26266235 204.35240601 470.26733398 203.29321289 C463.04519999 195.63606407 455.78761213 188.03821034 447.76953125 181.203125 C445.29569558 179.03428277 442.89961996 176.79500805 440.50195312 174.54272461 C434.98709842 169.36480688 429.41538371 164.35635972 423.50390625 159.62890625 C421.19903618 157.77485921 418.9238386 155.89934189 416.66015625 153.99609375 C407.256844 146.11147268 397.5930111 138.75555955 387.56933594 131.67871094 C385.6493852 130.31735685 383.74204827 128.94068429 381.83984375 127.5546875 C358.36890682 110.48582315 333.17278324 95.66534673 307.48828125 82.203125 C306.10020264 81.47512695 306.10020264 81.47512695 304.68408203 80.73242188 C266.28069803 60.74396416 226.00071455 46.21700116 184.48828125 34.203125 C183.32449951 33.85830078 182.16071777 33.51347656 180.96166992 33.15820312 C172.56093786 30.69595003 164.114745 28.63673505 155.55078125 26.828125 C154.85829285 26.68105103 154.16580444 26.53397705 153.45233154 26.38244629 C126.42813624 20.68599404 98.97723862 16.8004558 71.48828125 14.203125 C70.75967392 14.12012146 70.03106659 14.03711792 69.28038025 13.95159912 C60.75897136 13.05117391 52.2671475 13.05755535 43.7109375 13.0703125 C42.09305303 13.06963651 40.47516867 13.06866405 38.85728455 13.06741333 C35.47605415 13.06594642 32.09485033 13.06805579 28.71362305 13.07275391 C24.44078125 13.07841009 20.16800217 13.07508254 15.89516258 13.06933689 C-7.84909872 13.04178926 -31.18235987 13.51421217 -54.76171875 16.515625 Z " fill="#020202" transform="translate(619.51171875,-0.203125)"/>
<path d="M0 0 C94.56287425 0 94.56287425 0 110.19140625 13.95703125 C126.07369924 30.20097039 129.29408865 55.71921139 129.3359375 77.3671875 C129.3459227 79.22212326 129.3459227 79.22212326 129.35610962 81.11453247 C129.36616978 83.71794159 129.37092872 86.32137615 129.37060547 88.92480469 C129.37495053 92.83053124 129.41126753 96.73509962 129.44921875 100.640625 C129.56434377 126.1757989 128.11536403 153.36491598 110.01171875 173.17578125 C83.07760026 199.32206446 26.93485898 187 0 187 C0 125.29 0 63.58 0 0 Z " fill="#131718" transform="translate(256,577)"/>
<path d="M0 0 C15.84 0 31.68 0 48 0 C50.2275 5.713125 52.455 11.42625 54.75 17.3125 C59.56556849 29.65989 64.39049746 42.00352889 69.234375 54.33984375 C69.67279724 55.45664017 70.11121948 56.57343658 70.56292725 57.72407532 C72.70557168 63.18159949 74.84942602 68.6386437 76.99511719 74.0949707 C77.7988662 76.14142385 78.60257871 78.18789133 79.40625 80.234375 C79.75169861 81.11153671 80.09714722 81.98869843 80.45306396 82.8924408 C84.38042939 92.89953258 88.17228587 102.9522504 92 113 C92.33 75.71 92.66 38.42 93 0 C104.22 0 115.44 0 127 0 C127 62.04 127 124.08 127 188 C112.48 188 97.96 188 83 188 C81.02 182.39 79.04 176.78 77 171 C74.61089303 165.10612501 74.61089303 165.10612501 72.15429688 159.2434082 C64.14127192 140.4248135 56.529626 121.45044142 48.96630859 102.44750977 C48.55637665 101.4182135 48.1464447 100.38891724 47.72409058 99.32843018 C46.96807183 97.4293216 46.21301011 95.52983153 45.45925903 93.62982178 C42.04755421 85.05375651 38.51525848 76.53705631 35 68 C34.67 107.6 34.34 147.2 34 188 C22.78 188 11.56 188 0 188 C0 125.96 0 63.92 0 0 Z " fill="#141819" transform="translate(897,577)"/>
<path d="M0 0 C0.88602402 0.00222061 1.77204803 0.00444122 2.68492126 0.00672913 C3.68588333 0.00680466 4.6868454 0.00688019 5.71813965 0.00695801 C6.80666733 0.01211929 7.89519501 0.01728058 9.01670837 0.02259827 C10.67928932 0.02472069 10.67928932 0.02472069 12.37545776 0.02688599 C15.93168281 0.03250418 19.48784596 0.04505977 23.04405212 0.05775452 C25.44834809 0.06276717 27.85264504 0.06733048 30.25694275 0.07142639 C36.16516716 0.08247952 42.07335522 0.09923535 47.98155212 0.12025452 C48.46385717 1.38668865 48.94428619 2.65383734 49.42393494 3.92127991 C49.8255484 4.97962791 49.8255484 4.97962791 50.23527527 6.05935669 C51.24678215 8.85270653 51.99900704 11.67940519 52.73155212 14.55775452 C54.51265891 21.43922227 56.42312407 28.28014349 58.35655212 35.12025452 C60.72422167 43.51344939 62.99630312 51.92454641 65.16905212 60.37025452 C66.91720393 67.16346139 68.78588814 73.87384069 70.91905212 80.55775452 C72.70796902 86.55588764 74.21282019 92.62905004 75.77061462 98.69056702 C77.06717567 103.70655573 78.40583746 108.68301523 79.98155212 113.62025452 C82.19907057 120.56847899 83.95586968 127.62923274 85.77061462 134.69056702 C87.06717567 139.70655573 88.40583746 144.68301523 89.98155212 149.62025452 C91.9001207 155.65004147 93.50973548 161.74912406 95.10655212 167.87025452 C95.36049744 168.84156311 95.61444275 169.8128717 95.87608337 170.81361389 C97.3648196 176.56769757 98.69035161 182.3098522 99.98155212 188.12025452 C86.45155212 188.12025452 72.92155212 188.12025452 58.98155212 188.12025452 C57.88842712 184.16025452 56.79530212 180.20025452 55.66905212 176.12025452 C55.33091492 174.90853577 54.99277771 173.69681702 54.64439392 172.44837952 C52.25212341 163.66766726 50.67452161 155.14942509 48.98155212 146.12025452 C30.83155212 146.12025452 12.68155212 146.12025452 -6.01844788 146.12025452 C-6.51344788 150.08025452 -6.51344788 150.08025452 -7.01844788 154.12025452 C-7.50878288 156.36137013 -8.03969832 158.59401984 -8.61219788 160.81556702 C-9.07432678 162.63121155 -9.07432678 162.63121155 -9.54579163 164.48353577 C-9.86676819 165.72490295 -10.18774475 166.96627014 -10.51844788 168.24525452 C-11.15603538 170.72646853 -11.79152772 173.20822208 -12.42469788 175.69056702 C-12.70635803 176.78127502 -12.98801819 177.87198303 -13.2782135 178.9957428 C-13.99201208 182.00866965 -14.50941497 185.06605705 -15.01844788 188.12025452 C-28.21844788 188.12025452 -41.41844788 188.12025452 -55.01844788 188.12025452 C-52.78087882 176.93240921 -52.78087882 176.93240921 -51.33094788 172.05775452 C-49.38556802 165.40441078 -47.5052279 158.73498839 -45.64344788 152.05775452 C-43.22287512 143.39332883 -40.77311631 134.73797806 -38.29286194 126.09046936 C-35.98885832 118.0448153 -33.73517023 109.98531436 -31.48329163 101.92494202 C-29.71493604 95.59815871 -27.92517289 89.27815887 -26.11219788 82.96400452 C-24.56337471 77.5209974 -23.04193835 72.07039827 -21.51844788 66.62025452 C-19.40554211 59.06153305 -17.27821014 51.5077024 -15.11219788 43.96400452 C-13.56337426 38.52099582 -12.04220103 33.07032603 -10.51844788 27.62025452 C-9.62117453 24.41577486 -8.72365629 21.2113639 -7.82606506 18.00697327 C-7.11987938 15.48280774 -6.41654634 12.95786785 -5.71376038 10.43275452 C-5.36055725 9.17462952 -5.00735413 7.91650452 -4.64344788 6.62025452 C-4.3469635 5.55806702 -4.05047913 4.49587952 -3.74501038 3.40150452 C-2.71313651 0.16164248 -2.71313651 0.16164248 0 0 Z " fill="#15191A" transform="translate(575.0184478759766,576.8797454833984)"/>
<path d="M0 0 C13.2 0 26.4 0 40 0 C40.33 25.74 40.66 51.48 41 78 C47.27 67.44 53.54 56.88 60 46 C69 31.125 69 31.125 73.3125 24.3046875 C76.20579553 19.6102016 78.26587881 15.1655977 79.72265625 9.84814453 C81.73404009 5.75694674 84.29050885 2.67231762 88 0 C91.28086372 -1.02994962 94.37066766 -1.09702395 97.79296875 -1.0859375 C98.70548904 -1.10896942 99.61800934 -1.13200134 100.55818176 -1.1557312 C110.05678586 -1.31738396 119.5355121 -0.75324473 129 0 C125.09006437 7.3777709 120.905969 14.48847088 116.375 21.5 C115.131234 23.43992697 113.88774903 25.38003415 112.64453125 27.3203125 C112.02916504 28.2784082 111.41379883 29.23650391 110.77978516 30.22363281 C108.19017852 34.26327708 105.62356551 38.31721922 103.0625 42.375 C102.3504541 43.50204346 102.3504541 43.50204346 101.62402344 44.65185547 C98.77915999 49.1607847 95.94980328 53.67916247 93.12890625 58.203125 C92.46431396 59.26869629 91.79972168 60.33426758 91.11499023 61.43212891 C89.82537838 63.50126691 88.53704843 65.57120464 87.25024414 67.64208984 C86.6546167 68.59809082 86.05898926 69.5540918 85.4453125 70.5390625 C84.87458008 71.46235352 84.30384766 72.38564453 83.71582031 73.33691406 C82.58327377 75.09471396 81.39493803 76.81793638 80.15136719 78.49902344 C79.58321289 79.27020508 79.01505859 80.04138672 78.4296875 80.8359375 C77.91390137 81.49899902 77.39811523 82.16206055 76.86669922 82.84521484 C75.72488594 85.08936903 75.72488594 85.08936903 76.68188477 87.93847656 C77.8980945 90.76330896 79.18315926 93.45184338 80.66015625 96.1484375 C81.19785645 97.1374707 81.73555664 98.12650391 82.28955078 99.14550781 C82.87462402 100.21124023 83.45969727 101.27697266 84.0625 102.375 C85.33299755 104.71041945 86.6025594 107.04632804 87.87109375 109.3828125 C88.20383301 109.99459351 88.53657227 110.60637451 88.87939453 111.23669434 C92.48030152 117.86505274 96.00963534 124.53098065 99.53857422 131.19784546 C104.82486719 141.18314801 110.13829852 151.15118005 115.5625 161.0625 C116.03993652 161.93519531 116.51737305 162.80789063 117.00927734 163.70703125 C117.91187068 165.35632411 118.81453635 167.00557739 119.71728516 168.65478516 C121.73742989 172.34825875 123.75115846 176.04495129 125.75 179.75 C126.08588135 180.36496338 126.4217627 180.97992676 126.76782227 181.61352539 C129 185.76984877 129 185.76984877 129 188 C114.15 188 99.3 188 84 188 C81.36 182.72 78.72 177.44 76 172 C74.93136719 169.87433594 73.86273437 167.74867188 72.76171875 165.55859375 C65.67013217 151.44907881 58.77713144 137.26349757 52 123 C48.37 115.41 44.74 107.82 41 100 C40.67 129.04 40.34 158.08 40 188 C26.8 188 13.6 188 0 188 C0 125.96 0 63.92 0 0 Z " fill="#161A1B" transform="translate(687,577)"/>
<path d="M0 0 C33.33 0 66.66 0 101 0 C101 10.23 101 20.46 101 31 C80.87 31 60.74 31 40 31 C40 44.53 40 58.06 40 72 C58.48 72 76.96 72 96 72 C96 82.56 96 93.12 96 104 C77.52 104 59.04 104 40 104 C40 120.5 40 137 40 154 C60.46 154 80.92 154 102 154 C102 165.22 102 176.44 102 188 C68.34 188 34.68 188 0 188 C0 125.96 0 63.92 0 0 Z " fill="#15191A" transform="translate(406,577)"/>
<path d="M0 0 C12.21 0 24.42 0 37 0 C37 61.71 37 123.42 37 187 C24.79 187 12.58 187 0 187 C0 125.29 0 63.58 0 0 Z " fill="#131718" transform="translate(834,577)"/>
<path d="M0 0 C33.1745283 0 33.1745283 0 41 7 C50.62056142 18.66656317 51.15043381 35.00416643 51.16796875 49.484375 C51.17296135 50.95055267 51.17296135 50.95055267 51.17805481 52.4463501 C51.18308939 54.50361668 51.18546422 56.56089133 51.18530273 58.61816406 C51.18748411 61.72735391 51.20566329 64.83618545 51.22460938 67.9453125 C51.32704732 103.99100308 51.32704732 103.99100308 41 117 C36.83754302 121.16245698 34.01492424 121.74440341 28 124 C18.76 124 9.52 124 0 124 C0 83.08 0 42.16 0 0 Z " fill="#FDFDFD" transform="translate(295,608)"/>
<path d="M0 0 C0.82384689 0.00091141 1.64769379 0.00182281 2.49650574 0.00276184 C3.35068588 -0.00152328 4.20486603 -0.00580841 5.08493042 -0.01022339 C6.90155655 -0.01597793 8.71820573 -0.01645872 10.53483582 -0.01213074 C13.27182915 -0.00901261 16.00769643 -0.03226714 18.74455261 -0.05778503 C44.70075754 -0.15187596 44.70075754 -0.15187596 53.00822449 7.30354309 C58.6991177 14.25907925 59.37998614 22.03157129 59.32072449 30.67854309 C59.31653503 31.51272766 59.31234558 32.34691223 59.30802917 33.20637512 C59.172558 40.59531882 58.05614072 46.61729387 54.44572449 53.11604309 C51.98363161 55.32561362 49.81474849 56.49778401 46.85588074 57.94026184 C45.94975037 58.38458557 45.04362 58.8289093 44.11003113 59.28669739 C43.41643494 59.62225647 42.72283875 59.95781555 42.00822449 60.30354309 C43.90783777 63.71892393 45.8102189 67.13274725 47.7150116 70.54524231 C48.67549386 72.26727201 49.63387423 73.99047353 50.59220886 75.71369934 C53.28160662 80.52927019 55.95534684 85.28346711 59.02775574 89.86604309 C61.00822449 93.30354309 61.00822449 93.30354309 60.63200378 95.51838684 C60.42615662 96.1074884 60.22030945 96.69658997 60.00822449 97.30354309 C57.78149277 97.4662542 55.55131596 97.58225857 53.32072449 97.67854309 C51.45867371 97.78295715 51.45867371 97.78295715 49.55900574 97.88948059 C45.77276334 97.26468812 44.55736474 96.53418144 42.34635925 93.45198059 C39.20785688 88.4129693 36.23927667 83.28462079 33.32072449 78.11604309 C31.98535041 75.76732028 30.64703632 73.42028619 29.30900574 71.07307434 C28.72288513 70.03771545 28.13676453 69.00235657 27.53288269 67.93562317 C26.42279582 66.01923462 25.23671173 64.14627395 24.00822449 62.30354309 C21.23560194 61.91959642 18.66498921 61.70012061 15.88322449 61.61604309 C15.12912292 61.58188293 14.37502136 61.54772278 13.59806824 61.51252747 C11.73531248 61.43000031 9.87179122 61.36509598 8.00822449 61.30354309 C8.01869812 62.3230304 8.02917175 63.3425177 8.03996277 64.39289856 C8.07611176 68.16857911 8.09910625 71.9442443 8.11808777 75.720047 C8.12815703 77.35548981 8.14181329 78.99091458 8.15910339 80.626297 C8.18331154 82.97448679 8.19469806 85.32243897 8.20353699 87.67073059 C8.21385956 88.40411652 8.22418213 89.13750244 8.2348175 89.89311218 C8.23521817 91.69817006 8.13035203 93.50262139 8.00822449 95.30354309 C6.00822449 97.30354309 6.00822449 97.30354309 3.25822449 97.53401184 C1.64947449 97.51274231 1.64947449 97.51274231 0.00822449 97.49104309 C-1.06427551 97.48459778 -2.13677551 97.47815247 -3.24177551 97.47151184 C-5.99177551 97.30354309 -5.99177551 97.30354309 -7.99177551 96.30354309 C-8.03804094 84.08202276 -8.07361516 71.86052313 -8.09539986 59.63893318 C-8.10585346 53.96444234 -8.12004134 48.29001125 -8.14265442 42.61555481 C-8.16432668 37.14316594 -8.17633225 31.67083468 -8.18153 26.19840622 C-8.18523588 24.1067349 -8.19247215 22.01506686 -8.20323563 19.92341995 C-8.21767592 17.0020431 -8.2197566 14.0809067 -8.21882629 11.15950012 C-8.22601685 10.28772125 -8.2332074 9.41594238 -8.24061584 8.51774597 C-8.21576882 1.34487278 -7.21867246 0.09069033 0 0 Z " fill="#161A1B" transform="translate(673.9917755126953,811.6964569091797)"/>
<path d="M0 0 C0.92425781 -0.07476563 1.84851563 -0.14953125 2.80078125 -0.2265625 C7.43635341 1.14089992 9.13999443 4.6959421 11.6875 8.625 C12.18725342 9.37040039 12.68700684 10.11580078 13.2019043 10.88378906 C14.78281907 13.26235752 16.33192588 15.65922809 17.875 18.0625 C18.43960937 18.93648437 19.00421875 19.81046875 19.5859375 20.7109375 C20.73997798 22.49775524 21.89282067 24.28534719 23.04443359 26.07373047 C24.98014464 29.07940364 26.92203179 32.08104009 28.86499023 35.08203125 C29.74392023 36.43977284 30.62234153 37.79784388 31.50024414 39.15625 C34.06799754 43.12873488 36.64394425 47.09575428 39.2265625 51.05859375 C39.82275391 51.97382812 40.41894531 52.8890625 41.03320312 53.83203125 C42.20026916 55.6229844 43.36820814 57.41336908 44.53710938 59.203125 C45.06369141 60.01136719 45.59027344 60.81960938 46.1328125 61.65234375 C46.60219238 62.37156006 47.07157227 63.09077637 47.55517578 63.83178711 C48.6875 65.625 48.6875 65.625 49.6875 67.625 C49.69336624 66.81511627 49.69923248 66.00523254 49.70527649 65.17080688 C49.76311674 57.548257 49.83514261 49.92603726 49.92321491 42.30378151 C49.96799348 38.38483347 50.0072326 34.46599119 50.03393555 30.546875 C50.05989455 26.7665598 50.10024306 22.98664996 50.15068626 19.20658493 C50.16740542 17.76250617 50.17888818 16.31835722 50.18511391 14.8741951 C50.19469941 12.8556338 50.22442328 10.83719819 50.25512695 8.81884766 C50.26623001 7.66857086 50.27733307 6.51829407 50.28877258 5.3331604 C50.42035263 4.43946747 50.55193268 3.54577454 50.6875 2.625 C54.18802891 0.29131406 55.68364337 0.38278021 59.8125 0.4375 C60.88757813 0.44394531 61.96265625 0.45039062 63.0703125 0.45703125 C65.6875 0.625 65.6875 0.625 66.6875 1.625 C66.7881127 4.6026137 66.82364893 7.55707167 66.81689453 10.53515625 C66.81952301 11.93748001 66.81952301 11.93748001 66.82220459 13.36813354 C66.82662474 16.47460762 66.82368454 19.58102529 66.8203125 22.6875 C66.82098549 24.83601899 66.82195548 26.98453791 66.82321167 29.13305664 C66.82468886 33.64242272 66.82253339 38.15176903 66.81787109 42.66113281 C66.8121738 48.45548577 66.81545269 54.24979242 66.82144356 60.04414368 C66.82504859 64.48262891 66.82391085 68.92110307 66.82131577 73.35958862 C66.82064634 75.49673467 66.82147547 77.63388171 66.82379532 79.77102661 C66.8263209 82.75232626 66.82248259 85.7335498 66.81689453 88.71484375 C66.81891876 89.60734833 66.82094299 90.49985291 66.82302856 91.41940308 C66.80176232 97.51073768 66.80176232 97.51073768 65.6875 98.625 C63.94214745 98.77727908 62.18925759 98.84689694 60.4375 98.875 C59.00664062 98.91367187 59.00664062 98.91367187 57.546875 98.953125 C53.974091 98.54313339 52.49755177 97.9070762 49.6875 95.625 C47.47291946 92.77757178 45.58693372 89.7512431 43.6875 86.6875 C42.53415431 84.86960121 41.38049975 83.05189835 40.2265625 81.234375 C39.64036133 80.30302734 39.05416016 79.37167969 38.45019531 78.41210938 C35.69722428 74.05921224 32.87823242 69.74994763 30.0625 65.4375 C25.45811918 58.35976606 20.866733 51.2736794 16.28857422 44.17895508 C15.87236816 43.53466553 15.45616211 42.89037598 15.02734375 42.2265625 C14.49161743 41.39632568 14.49161743 41.39632568 13.94506836 40.54931641 C12.21084934 37.89563473 10.44845873 35.260988 8.6875 32.625 C8.67719254 33.43710434 8.66688507 34.24920868 8.65626526 35.08592224 C8.55846021 42.72336488 8.45597052 50.36072322 8.34816074 57.99803066 C8.29289585 61.92484614 8.2394703 65.85166901 8.19018555 69.77856445 C8.14259439 73.56520842 8.09025376 77.35175916 8.03455925 81.13829231 C8.01411182 82.58601638 7.99540276 84.03376603 7.97842598 85.48153496 C7.95443492 87.50264159 7.92379925 89.5236661 7.89282227 91.54467773 C7.87727798 92.69717514 7.8617337 93.84967255 7.84571838 95.03709412 C7.6875 97.625 7.6875 97.625 6.6875 98.625 C4.54442104 98.75037741 2.39671114 98.80074364 0.25 98.8125 C-1.51150391 98.83376953 -1.51150391 98.83376953 -3.30859375 98.85546875 C-6.3125 98.625 -6.3125 98.625 -8.3125 96.625 C-8.51661369 93.65317161 -8.59563847 90.77415018 -8.5871582 87.80078125 C-8.59226913 86.88686615 -8.59738007 85.97295105 -8.60264587 85.03134155 C-8.61658536 81.99999507 -8.61558199 78.96887479 -8.61328125 75.9375 C-8.61716548 73.83764562 -8.62149958 71.73779202 -8.62626648 69.63793945 C-8.63373785 65.23288427 -8.63343055 60.82790921 -8.62817383 56.42285156 C-8.62237474 50.76639825 -8.63931648 45.1102719 -8.6625185 39.45387268 C-8.67721974 35.11655751 -8.67813253 30.77932176 -8.67500877 26.44198608 C-8.6755237 24.35589957 -8.68079331 22.26980881 -8.69082069 20.18374634 C-8.70309946 17.2720182 -8.69644541 14.36093585 -8.68481445 11.44921875 C-8.69245819 10.58058197 -8.70010193 9.71194519 -8.70797729 8.81698608 C-8.6867218 6.4206543 -8.6867218 6.4206543 -8.3125 2.625 C-5.10816549 0.48877699 -3.75621975 0.19742234 0 0 Z " fill="#161A1B" transform="translate(360.3125,810.375)"/>
<path d="M0 0 C2.81165902 3.36080522 5.08596689 6.70470045 7.1796875 10.55078125 C7.77128662 11.62900146 8.36288574 12.70722168 8.97241211 13.81811523 C9.60026611 14.97126221 10.22812012 16.12440918 10.875 17.3125 C12.22408497 19.77031977 13.57803226 22.2254346 14.93359375 24.6796875 C15.44651726 25.60886238 15.44651726 25.60886238 15.96980286 26.55680847 C19.20521074 32.40161886 22.55340565 38.17757764 25.9375 43.9375 C30.99515779 52.55093138 35.99137201 61.19713595 40.9375 69.875 C46.10039668 78.9309793 51.28365732 87.9746483 56.5 97 C62.02748626 106.56526442 67.52312286 116.14826949 72.99514771 125.74533081 C76.74550648 132.32286003 80.5095523 138.89185062 84.30859375 145.44140625 C84.83231064 146.34516495 84.83231064 146.34516495 85.36660767 147.2671814 C87.03855371 150.15212231 88.71319289 153.03539179 90.39257812 155.91601562 C90.98361328 156.93501953 91.57464844 157.95402344 92.18359375 159.00390625 C92.70493896 159.89924072 93.22628418 160.7945752 93.76342773 161.71704102 C95 164 95 164 96 167 C88.74 167 81.48 167 74 167 C73.01902344 165.28039062 72.03804687 163.56078125 71.02734375 161.7890625 C62.34405199 146.57566618 53.62294813 131.38483368 44.85888672 116.21777344 C41.73675395 110.81329355 38.61858796 105.40652588 35.5 100 C34.25001878 97.8333225 33.00001879 95.66665583 31.75 93.5 C24.25 80.5 24.25 80.5 22.37353516 77.24731445 C21.12858718 75.08950197 19.8834711 72.93178647 18.63818359 70.77416992 C15.43447349 65.22283408 12.2340637 59.66963459 9.0390625 54.11328125 C8.38800537 52.98237061 7.73694824 51.85145996 7.06616211 50.6862793 C5.78885042 48.46628555 4.51356585 46.24512403 3.24047852 44.02270508 C0.56504214 39.36748162 -2.12798749 34.74071381 -5.01171875 30.2109375 C-5.4495166 29.51701904 -5.88731445 28.82310059 -6.33837891 28.1081543 C-7.460875 26.34695032 -8.60629458 24.60041127 -9.75390625 22.85546875 C-11 20 -11 20 -10.50390625 17.6015625 C-10.00761719 16.74304688 -9.51132812 15.88453125 -9 15 C-8.66266846 14.40775635 -8.32533691 13.8155127 -7.9777832 13.20532227 C-6.80670586 11.17991183 -5.59689199 9.18262051 -4.375 7.1875 C-3.95476563 6.49462891 -3.53453125 5.80175781 -3.1015625 5.08789062 C-2.0710533 3.38989252 -1.03598319 1.69466386 0 0 Z " fill="#FBFBFB" transform="translate(640,267)"/>
<path d="M0 0 C0.86882812 -0.00515625 1.73765625 -0.0103125 2.6328125 -0.015625 C4.875 0.25 4.875 0.25 6.875 2.25 C7.13328552 5.14556885 7.13328552 5.14556885 7.14624023 8.89941406 C7.15146698 9.58257187 7.15669373 10.26572968 7.16207886 10.96958923 C7.17233102 12.45536243 7.17810138 13.94117166 7.17996025 15.42697906 C7.18361811 17.7813039 7.20033015 20.13520525 7.22071838 22.48944092 C7.2761738 29.1837983 7.30676076 35.8782195 7.33129883 42.57275391 C7.34720971 46.66655023 7.37747127 50.76004917 7.41606331 54.8536911 C7.42768855 56.4117084 7.43364344 57.969779 7.43374443 59.52783966 C7.43393735 61.71320941 7.45226776 63.89776506 7.47436523 66.08300781 C7.47943588 67.32495911 7.48450653 68.5669104 7.48973083 69.84649658 C8.07030541 74.97534603 9.67585761 78.19172602 13.53515625 81.59765625 C17.68653643 83.65149697 20.7560889 83.81238837 25.3125 83.6875 C26.03759766 83.69458984 26.76269531 83.70167969 27.50976562 83.70898438 C33.23830445 83.64207422 38.41704328 82.62319959 42.6875 78.5 C45.42389508 73.31525142 46.12815218 68.09708258 46.19384766 62.30493164 C46.20891609 61.32316452 46.20891609 61.32316452 46.22428894 60.32156372 C46.25487869 58.18443585 46.27208755 56.04743179 46.2890625 53.91015625 C46.30779373 52.4179937 46.32736857 50.92584152 46.3477478 49.43370056 C46.39886881 45.52609398 46.43860104 41.61845313 46.47589111 37.71069336 C46.51605708 33.71524723 46.56709168 29.71994116 46.6171875 25.72460938 C46.71370927 17.89983601 46.79818918 10.07499433 46.875 2.25 C50.14941177 0.49707594 52.3246243 0.00176642 56.0625 0.0625 C56.94292969 0.06894531 57.82335937 0.07539062 58.73046875 0.08203125 C60.875 0.25 60.875 0.25 61.875 1.25 C61.99053766 3.49177804 62.03472779 5.73724668 62.05200195 7.98193359 C62.05857315 8.68617462 62.06514435 9.39041565 62.07191467 10.11599731 C62.09171182 12.46014507 62.10333158 14.8042282 62.11328125 17.1484375 C62.11735678 17.95020039 62.1214323 18.75196327 62.12563133 19.578022 C62.14653094 23.83114619 62.16080914 28.08423785 62.17016602 32.33740234 C62.18116857 36.7095551 62.21548476 41.08119014 62.25533772 45.45316124 C62.28164377 48.83005643 62.28987073 52.20683173 62.29344749 55.58382034 C62.29828665 57.19359411 62.30982346 58.80336349 62.32848549 60.41303635 C62.45270914 71.84959401 61.94046453 83.02214069 53.65234375 91.81640625 C45.67684663 98.24938964 36.51274263 98.45480212 26.75 98.5 C25.65945313 98.520625 24.56890625 98.54125 23.4453125 98.5625 C14.10512787 98.60718988 5.35707086 97.66747341 -1.66015625 90.98046875 C-9.906964 81.23823986 -9.40419963 68.9782464 -9.3203125 56.9375 C-9.31657696 55.35709818 -9.31373255 53.77669403 -9.31173706 52.19628906 C-9.30414315 48.06005326 -9.28453168 43.9239605 -9.2623291 39.78778076 C-9.24177872 35.55775893 -9.23271578 31.32771373 -9.22265625 27.09765625 C-9.2012813 18.81503892 -9.16719731 10.53253731 -9.125 2.25 C-5.8861833 0.52205912 -3.69594375 -0.02206534 0 0 Z " fill="#15191A" transform="translate(264.125,810.75)"/>
<path d="M0 0 C1.13457642 -0.00630432 2.26915283 -0.01260864 3.43811035 -0.019104 C5.28342346 -0.01303131 5.28342346 -0.01303131 7.16601562 -0.00683594 C9.0524176 -0.00970612 9.0524176 -0.00970612 10.97692871 -0.01263428 C13.64019438 -0.01399743 16.30309492 -0.011291 18.96630859 -0.00195312 C22.38297957 0.00944154 25.79933635 0.00288159 29.21599579 -0.00909805 C32.47018042 -0.01805547 35.7243269 -0.01178722 38.97851562 -0.00683594 C40.20872437 -0.0108844 41.43893311 -0.01493286 42.7064209 -0.019104 C44.40828552 -0.00964752 44.40828552 -0.00964752 46.14453125 0 C47.14665649 0.00159119 48.14878174 0.00318237 49.18127441 0.00482178 C51.57226562 0.25878906 51.57226562 0.25878906 53.57226562 2.25878906 C53.80273438 4.31738281 53.80273438 4.31738281 53.75976562 6.69628906 C53.75332031 7.47875 53.746875 8.26121094 53.74023438 9.06738281 C53.57226562 11.25878906 53.57226562 11.25878906 52.57226562 14.25878906 C38.05226563 14.25878906 23.53226563 14.25878906 8.57226562 14.25878906 C8.57226562 22.83878906 8.57226562 31.41878906 8.57226562 40.25878906 C11.2921875 40.23558594 14.01210938 40.21238281 16.81445312 40.18847656 C19.4422153 40.17288913 22.06997238 40.16073922 24.69775391 40.14892578 C26.52720435 40.13885422 28.35663865 40.12519631 30.18603516 40.10791016 C32.81221496 40.08371229 35.43818237 40.07231774 38.06445312 40.06347656 C38.88533417 40.05315399 39.70621521 40.04283142 40.55197144 40.03219604 C42.56015705 40.03179722 44.56781944 40.13629367 46.57226562 40.25878906 C48.57226562 42.25878906 48.57226562 42.25878906 48.83789062 44.31738281 C48.83273437 45.10242188 48.82757812 45.88746094 48.82226562 46.69628906 C48.83 47.86998047 48.83 47.86998047 48.83789062 49.06738281 C48.57226562 51.25878906 48.57226562 51.25878906 46.57226562 54.25878906 C43.66391678 54.52539089 40.97088294 54.6065803 38.06445312 54.55175781 C37.22383331 54.54751297 36.3832135 54.54326813 35.51712036 54.53889465 C32.82684569 54.52207438 30.13731463 54.48441687 27.44726562 54.44628906 C25.62566184 54.43124652 23.80404635 54.41755736 21.98242188 54.40527344 C17.51185144 54.37470892 13.04289279 54.31599614 8.57226562 54.25878906 C8.57226562 63.49878906 8.57226562 72.73878906 8.57226562 82.25878906 C11.73691406 82.2471875 14.9015625 82.23558594 18.16210938 82.22363281 C21.21345927 82.21584312 24.26480807 82.20976586 27.31616211 82.20385742 C29.44344577 82.19881608 31.57072594 82.19198315 33.69799805 82.18334961 C36.74854388 82.17127527 39.79904408 82.16555892 42.84960938 82.16113281 C44.28553688 82.15339088 44.28553688 82.15339088 45.75047302 82.14549255 C47.07172935 82.14537926 47.07172935 82.14537926 48.41967773 82.14526367 C49.1991124 82.14304306 49.97854706 82.14082245 50.78160095 82.13853455 C52.57226562 82.25878906 52.57226562 82.25878906 53.57226562 83.25878906 C53.74023438 85.18457031 53.74023438 85.18457031 53.75976562 87.57128906 C53.77394531 88.35117187 53.788125 89.13105469 53.80273438 89.93457031 C53.55088795 92.47437748 52.75872682 94.02605543 51.57226562 96.25878906 C44.32261319 96.30512212 37.07299266 96.34066315 29.82322216 96.36241341 C26.45688333 96.37285226 23.09064578 96.38701316 19.72436523 96.40966797 C15.85462747 96.43386717 11.98503387 96.44526098 8.11523438 96.45410156 C6.90578659 96.46442413 5.69633881 96.4747467 4.45024109 96.48538208 C2.76883781 96.48560867 2.76883781 96.48560867 1.0534668 96.48583984 C0.06529465 96.49028107 -0.9228775 96.49472229 -1.94099426 96.4992981 C-4.42773438 96.25878906 -4.42773438 96.25878906 -7.42773438 94.25878906 C-7.72445431 91.30942318 -7.82659424 88.56984548 -7.80004883 85.61816406 C-7.80369949 84.7237561 -7.80735016 83.82934814 -7.81111145 82.90783691 C-7.81924 79.94129651 -7.80558774 76.9752984 -7.79101562 74.00878906 C-7.7904973 71.95377605 -7.79101394 69.89876253 -7.79252625 67.84375 C-7.79243642 63.5328025 -7.78198566 59.22204161 -7.76391602 54.91113281 C-7.74122854 49.37579511 -7.74068364 43.84073028 -7.74743366 38.30535889 C-7.75076971 34.06068482 -7.74415043 29.81607335 -7.73430443 25.57141113 C-7.73044585 23.52999194 -7.72930692 21.48856578 -7.73089027 19.44714355 C-7.73125972 16.5977646 -7.71867453 13.74873997 -7.70239258 10.89941406 C-7.70487 10.04947876 -7.70734741 9.19954346 -7.7098999 8.32385254 C-7.64815904 1.57913474 -6.74598362 0.01071135 0 0 Z " fill="#161A1B" transform="translate(589.427734375,811.7412109375)"/>
<path d="M0 0 C1.44826172 -0.02126953 1.44826172 -0.02126953 2.92578125 -0.04296875 C5.95617329 0.20992111 7.23464345 0.40384931 9.6875 2.1875 C10.81014895 4.71715369 11.65881269 7.05318274 12.44921875 9.6875 C12.6980632 10.47431152 12.94690765 11.26112305 13.20329285 12.07177734 C14.0498993 14.77164738 14.87032747 17.47858203 15.6875 20.1875 C15.9902887 21.18040039 16.29307739 22.17330078 16.6050415 23.19628906 C18.93758269 30.84990712 21.22330398 38.51711719 23.5 46.1875 C24.51803179 49.61286056 25.53692186 53.03795729 26.55802917 56.46240234 C27.18760607 58.57414711 27.81537185 60.68643287 28.44111633 62.79931641 C28.72198593 63.74210449 29.00285553 64.68489258 29.29223633 65.65625 C29.53839188 66.48576172 29.78454742 67.31527344 30.03816223 68.16992188 C30.64369737 70.2263018 30.64369737 70.2263018 31.6875 72.1875 C31.9505896 71.28547852 31.9505896 71.28547852 32.21899414 70.36523438 C32.75283893 68.53490937 33.28669414 66.70458741 33.82055664 64.87426758 C34.44872383 62.72048078 35.07681427 60.5666716 35.70483398 58.4128418 C37.30146912 52.93747414 38.89910209 47.4624042 40.5 41.98828125 C40.7902002 40.99465576 41.08040039 40.00103027 41.37939453 38.97729492 C41.95937483 36.99387941 42.54107848 35.01096701 43.12451172 33.02856445 C44.57842891 28.07158228 45.9883468 23.10843502 47.3203125 18.1171875 C47.71367798 16.66735474 47.71367798 16.66735474 48.11499023 15.18823242 C48.60863723 13.36096153 49.09061317 11.530483 49.55883789 9.6965332 C51.1700793 3.78044834 51.1700793 3.78044834 53.48046875 1.1328125 C56.37214664 -0.10574688 58.67295991 -0.17514008 61.8125 -0.125 C62.86695313 -0.12113281 63.92140625 -0.11726562 65.0078125 -0.11328125 C67.6875 0.1875 67.6875 0.1875 69.6875 2.1875 C69.23916513 6.91323326 67.33757058 11.51815531 65.8359375 16.00097656 C65.54479065 16.87792175 65.2536438 17.75486694 64.95367432 18.65838623 C63.992961 21.54931108 63.02787847 24.43875496 62.0625 27.328125 C61.39354174 29.33634691 60.72476163 31.34462818 60.05615234 33.35296631 C58.65592247 37.55660243 57.25352736 41.7595083 55.84960938 45.96191406 C54.04638422 51.36016896 52.24857273 56.76020859 50.45236206 62.16080093 C49.0733954 66.30490965 47.69158562 70.44806591 46.30889893 74.59093475 C45.6445495 76.58264517 44.98109745 78.57465513 44.31854248 80.5669632 C43.39494134 83.34281843 42.46753134 86.11737135 41.5390625 88.89160156 C41.26370667 89.72171753 40.98835083 90.5518335 40.70465088 91.40710449 C38.80176558 97.07323442 38.80176558 97.07323442 37.6875 98.1875 C35.50110547 98.26008946 33.31249611 98.27123783 31.125 98.25 C29.32869141 98.23646484 29.32869141 98.23646484 27.49609375 98.22265625 C26.10583984 98.20525391 26.10583984 98.20525391 24.6875 98.1875 C22.01040008 92.38807686 19.66713782 86.57635807 17.6472168 80.51831055 C17.37192642 79.70412155 17.09663605 78.88993256 16.81300354 78.05107117 C15.91613009 75.39370086 15.02593866 72.73415909 14.13671875 70.07421875 C13.51235945 68.21333469 12.88791243 66.35248006 12.26338196 64.49165344 C10.96161259 60.60872503 9.66367056 56.72454034 8.36791992 52.83959961 C6.70573745 47.85836433 5.02972966 42.88189856 3.35035992 37.90643597 C2.05905023 34.07329368 0.7771869 30.23704208 -0.50203514 26.39985085 C-1.11622589 24.56266835 -1.73386627 22.72663539 -2.35500526 20.89179039 C-3.21968474 18.33429492 -4.07104574 15.77273527 -4.91918945 13.2097168 C-5.17832123 12.45277527 -5.437453 11.69583374 -5.70443726 10.91595459 C-6.90456806 7.24223218 -7.55329412 4.86522588 -6.3125 1.1875 C-4.59154777 -0.53345223 -2.34086086 0.01550239 0 0 Z " fill="#171B1C" transform="translate(494.3125,810.8125)"/>
<path d="M0 0 C0.87906006 0.00531738 1.75812012 0.01063477 2.66381836 0.01611328 C19.32455895 0.2580393 19.32455895 0.2580393 25.3125 4.25 C25.87987589 11.39893617 25.87987589 11.39893617 23.3125 15.25 C21.4375 15.578125 21.4375 15.578125 19.3125 15.5 C18.61125 15.48453125 17.91 15.4690625 17.1875 15.453125 C15.3125 15.25 15.3125 15.25 13.3125 14.25 C-0.33754216 13.20320471 -0.33754216 13.20320471 -12.6875 18.25 C-14.57117107 22.01734214 -13.99652306 26.09116354 -12.9375 30.0625 C-11.42998482 32.70065156 -10.39842019 32.99066009 -7.6875 34.25 C22.63584716 51.22004147 22.63584716 51.22004147 27.3125 65.25 C28.53102558 83.20827039 28.53102558 83.20827039 23.3125 89.25 C15.72479868 96.70067736 7.21187499 98.61745031 -3.18359375 98.61132812 C-4.29863281 98.59521484 -5.41367187 98.57910156 -6.5625 98.5625 C-8.22345703 98.56733398 -8.22345703 98.56733398 -9.91796875 98.57226562 C-26.25412946 98.46668527 -26.25412946 98.46668527 -32.6875 95.25 C-32.76917446 93.83430936 -32.82699698 92.41723195 -32.875 91 C-32.90980469 90.21109375 -32.94460938 89.4221875 -32.98046875 88.609375 C-32.62328688 85.73287032 -31.56998282 84.40423231 -29.6875 82.25 C-29.03007813 82.394375 -28.37265625 82.53875 -27.6953125 82.6875 C-21.25996644 83.94317728 -14.97845684 84.49209434 -8.4375 84.5625 C-7.69387207 84.57990234 -6.95024414 84.59730469 -6.18408203 84.61523438 C-0.73626341 84.61039724 3.35929021 83.55897443 8.3125 81.25 C10.42754424 78.07743365 10.63167542 77.0482575 10.6875 73.375 C10.73003906 72.11042969 10.73003906 72.11042969 10.7734375 70.8203125 C9.94362981 66.19307979 7.2102668 63.87806731 3.46484375 61.2578125 C2.40394531 60.63648438 1.34304688 60.01515625 0.25 59.375 C-0.90924518 58.68424954 -2.06809259 57.99283114 -3.2265625 57.30078125 C-4.09522949 56.78765381 -4.09522949 56.78765381 -4.98144531 56.26416016 C-16.44905396 49.44726743 -26.20457019 43.42230918 -30.6875 30.25 C-31.65732787 23.03243888 -30.98553989 16.81410995 -27.37109375 10.4453125 C-20.57866998 1.58837013 -10.52898904 -0.11410826 0 0 Z " fill="#171B1C" transform="translate(783.6875,810.75)"/>
<path d="M0 0 C2.98885268 2.77737346 5.01050908 5.43928991 6.9609375 9.015625 C7.5075 10.00691406 8.0540625 10.99820312 8.6171875 12.01953125 C9.19726562 13.08558594 9.77734375 14.15164063 10.375 15.25 C11.6309504 17.52706973 12.88881161 19.80308641 14.1484375 22.078125 C14.46866882 22.65743774 14.78890015 23.23675049 15.11883545 23.83361816 C18.32026967 29.61042119 21.65058659 35.308174 25 41 C29.76515147 49.11367227 34.42423719 57.27805588 39 65.5 C43.59870813 73.76212934 48.27912358 81.96836396 53.0625 90.125 C57.83146829 98.25796803 62.54493212 106.4191352 67.1875 114.625 C67.72834229 115.57906738 68.26918457 116.53313477 68.82641602 117.51611328 C71.33359515 121.96042155 73.77904149 126.40543979 76 131 C69.0090218 132.78955174 61.81774928 133.86687023 55 131 C48.50032027 124.80570205 44.80880123 115.84842806 40.92382812 107.86181641 C38.20179611 102.31229708 35.06430191 97.00776592 31.94735718 91.67382812 C30.25704511 88.76753955 28.6007941 85.84198562 26.94140625 82.91796875 C17.59641202 66.48850195 8.10587561 50.14207003 -1.43408203 33.82519531 C-2.49217469 32.0151922 -3.54498764 30.20208736 -4.59130859 28.38525391 C-5.47153494 26.89481865 -6.38632145 25.4236615 -7.35009766 23.98583984 C-9.28661886 21.02728825 -10.08917716 19.54497154 -9.5078125 15.9921875 C-7.79319745 12.58960945 -5.92774006 9.33104632 -3.875 6.125 C-3.50246094 5.53203125 -3.12992188 4.9390625 -2.74609375 4.328125 C-1.83635 2.8818657 -0.91896202 1.44041954 0 0 Z " fill="#FBFBFB" transform="translate(619,303)"/>
<path d="M0 0 C2.08218362 -0.10832169 4.16599129 -0.18573541 6.25 -0.25 C7.99023438 -0.31960938 7.99023438 -0.31960938 9.765625 -0.390625 C13.83599436 0.1009655 14.41903079 0.85914922 17 4 C18.66640911 6.8864409 20.08848192 9.87440534 21.51171875 12.88671875 C21.92541214 13.74433304 22.33910553 14.60194733 22.76533508 15.48554993 C24.08063189 18.21581621 25.38447298 20.95135967 26.6875 23.6875 C28.00340094 26.43325865 29.32163152 29.17787582 30.64179993 31.92158508 C31.46165421 33.62734464 32.27861515 35.33449835 33.092453 37.0431366 C33.45986099 37.81095963 33.82726898 38.57878265 34.20581055 39.36987305 C34.52905807 40.04841843 34.8523056 40.72696381 35.18534851 41.42607117 C35.8994818 43.00046207 35.8994818 43.00046207 37 44 C37.24389969 43.49301071 37.48779938 42.98602142 37.73908997 42.46366882 C40.27858222 37.18802628 42.82679929 31.91666495 45.38012695 26.64770508 C46.33191807 24.68069173 47.28147839 22.71259733 48.22875977 20.7434082 C49.59066241 17.91330459 50.96053736 15.08718433 52.33203125 12.26171875 C52.75402298 11.38037766 53.17601471 10.49903656 53.61079407 9.59098816 C54.01098251 8.77036392 54.41117096 7.94973969 54.82348633 7.10424805 C55.17212234 6.38254929 55.52075836 5.66085052 55.87995911 4.9172821 C57.0670631 2.88520163 58.1699231 1.48023269 60 0 C63.13671875 -0.29296875 63.13671875 -0.29296875 66.6875 -0.1875 C68.45673828 -0.14689453 68.45673828 -0.14689453 70.26171875 -0.10546875 C71.16535156 -0.07066406 72.06898438 -0.03585937 73 0 C74.2806185 3.46780924 73.99435195 5.52920743 72.51220703 8.78613281 C71.77522138 10.2657643 71.0226655 11.73770456 70.2578125 13.203125 C69.85601776 13.99918152 69.45422302 14.79523804 69.04025269 15.61541748 C67.74815174 18.16712309 66.43682954 20.7083906 65.125 23.25 C64.28000147 24.91342885 63.43623923 26.57748634 62.59375 28.2421875 C61.75279582 29.89593081 60.91165001 31.54957668 60.0703125 33.203125 C59.65248001 34.02892563 59.23464752 34.85472626 58.80415344 35.70555115 C56.78067014 39.66968852 54.70153066 43.55449074 52.39135742 47.35961914 C46.02294958 58.03453324 44.7583888 66.61531783 45.0625 78.9375 C45.08346957 81.37069357 45.09179999 83.80342953 45.09165955 86.23670959 C45.09557275 87.73148275 45.113766 89.22630645 45.14820862 90.72068787 C45.17248095 92.48098456 45.09486195 94.24209363 45 96 C43 98 43 98 40.25 98.23046875 C38.64125 98.20919922 38.64125 98.20919922 37 98.1875 C35.9275 98.18105469 34.855 98.17460938 33.75 98.16796875 C31 98 31 98 29 97 C29.07968018 96.1241626 29.15936035 95.2483252 29.24145508 94.34594727 C31.34206272 65.79501937 22.50267114 46.52687434 8.2946167 22.22015381 C6.24437486 18.70416933 4.22707493 15.17308004 2.25390625 11.61328125 C1.90609604 11.0133989 1.55828583 10.41351654 1.19993591 9.79545593 C-0.34776491 6.97193501 -1.03378351 5.33180136 -0.70336914 2.08666992 C-0.47125732 1.39806885 -0.23914551 0.70946777 0 0 Z " fill="#171A1B" transform="translate(950,811)"/>
<path d="M0 0 C8.83153988 -0.04628239 17.6630382 -0.08184825 26.49467278 -0.10362434 C30.59528757 -0.11407426 34.69581958 -0.12825537 38.79638672 -0.15087891 C42.75155581 -0.1725644 46.70664511 -0.18455952 50.66186905 -0.18975449 C52.17299786 -0.19345799 53.68412217 -0.20068975 55.19521713 -0.21146011 C57.30716232 -0.22591823 59.41877524 -0.22798037 61.53076172 -0.22705078 C62.73433319 -0.231492 63.93790466 -0.23593323 65.177948 -0.24050903 C68 0 68 0 70 2 C70.265625 4.0234375 70.265625 4.0234375 70.25 6.375 C70.25773438 7.53128906 70.25773438 7.53128906 70.265625 8.7109375 C70 11 70 11 68 15 C59.42 15 50.84 15 42 15 C42.00523682 17.44849365 42.01047363 19.8969873 42.01586914 22.41967773 C42.03240494 30.49026528 42.04347118 38.56085355 42.05181217 46.63145351 C42.057041 51.52685374 42.06413864 56.42223668 42.07543945 61.31762695 C42.08626834 66.03787978 42.09227684 70.75811592 42.09487724 75.4783802 C42.09673149 77.28338954 42.10035209 79.08839792 42.10573006 80.89340019 C42.11294052 83.41259644 42.11399094 85.9317229 42.11352539 88.45092773 C42.11712067 89.20474228 42.12071594 89.95855682 42.12442017 90.73521423 C42.11405216 95.88594784 42.11405216 95.88594784 41 97 C38.85692104 97.12537741 36.70921114 97.17574364 34.5625 97.1875 C32.80099609 97.20876953 32.80099609 97.20876953 31.00390625 97.23046875 C28 97 28 97 26 95 C25.81215518 92.44008098 25.74810195 89.9893036 25.77294922 87.42919922 C25.77265717 86.64862152 25.77236511 85.86804382 25.77206421 85.06381226 C25.77346032 82.47732522 25.78903458 79.89112436 25.8046875 77.3046875 C25.80841663 75.51392779 25.81126408 73.72316604 25.81326294 71.93240356 C25.82090725 67.21411528 25.84056255 62.49594969 25.8626709 57.77770996 C25.88311218 52.96510478 25.89226097 48.15247981 25.90234375 43.33984375 C25.92380772 33.89317519 25.95795325 24.44659779 26 15 C24.83428467 15.02356567 24.83428467 15.02356567 23.64501953 15.04760742 C20.1384198 15.10980351 16.63193587 15.14894207 13.125 15.1875 C11.29001953 15.22520508 11.29001953 15.22520508 9.41796875 15.26367188 C7.66806641 15.27817383 7.66806641 15.27817383 5.8828125 15.29296875 C4.26463623 15.31653442 4.26463623 15.31653442 2.61376953 15.34057617 C1.75122559 15.22818604 0.88868164 15.1157959 0 15 C-2.43522498 11.34716253 -2.55474367 8.25031548 -2 4 C-1.35721197 2.65499228 -0.69303125 1.31982192 0 0 Z " fill="#191D1E" transform="translate(868,812)"/>
<path d="M0 0 C3.13576152 2.88840272 5.15369248 5.71098562 7.1796875 9.453125 C7.77144775 10.53480957 8.36320801 11.61649414 8.97290039 12.73095703 C9.28244659 13.30380432 9.5919928 13.87665161 9.91091919 14.46685791 C11.56732821 17.53051461 13.24719851 20.58126498 14.92578125 23.6328125 C15.26731735 24.2547348 15.60885345 24.8766571 15.96073914 25.51742554 C19.22607355 31.44670124 22.62743632 37.29256337 26.0625 43.125 C31.53029005 52.42063005 36.83020607 61.79988227 42.07104492 71.22509766 C45.76223636 77.84484204 49.54467887 84.39412449 53.51293945 90.85180664 C56 94.90837725 56 94.90837725 56 96 C48.72462403 97.4008062 41.13955895 98.44505443 34 96 C28.34027361 91.25605248 25.59026178 83.85473178 22.5703125 77.28515625 C19.90369686 71.70649019 16.70428837 66.44557033 13.5625 61.125 C12.30611326 58.94674133 11.05221325 56.76704649 9.80078125 54.5859375 C5.40075695 46.94648491 0.94849273 39.33762361 -3.52124023 31.73876953 C-4.5809493 29.9303206 -5.62927886 28.11512781 -6.66308594 26.29174805 C-8.06628478 23.81342721 -8.06628478 23.81342721 -10.1875 20.87890625 C-11.15875473 17.43748925 -10.73951896 16.81328153 -9.140625 13.73046875 C-8.20141488 12.20093588 -7.23675269 10.68680169 -6.25 9.1875 C-5.76789062 8.41212891 -5.28578125 7.63675781 -4.7890625 6.83789062 C-1.35355679 1.35355679 -1.35355679 1.35355679 0 0 Z " fill="#FBFBFB" transform="translate(599,338)"/>
<path d="M0 0 C1.07507813 0.00644531 2.15015625 0.01289062 3.2578125 0.01953125 C5.875 0.1875 5.875 0.1875 6.875 1.1875 C6.9756127 4.1651137 7.01114893 7.11957167 7.00439453 10.09765625 C7.00614685 11.03253876 7.00789917 11.96742126 7.00970459 12.93063354 C7.01412474 16.03710762 7.01118454 19.14352529 7.0078125 22.25 C7.00848549 24.39851899 7.00945548 26.54703791 7.01071167 28.69555664 C7.01218886 33.20492272 7.01003339 37.71426903 7.00537109 42.22363281 C6.9996738 48.01798577 7.00295269 53.81229242 7.00894356 59.60664368 C7.01254859 64.04512891 7.01141085 68.48360307 7.00881577 72.92208862 C7.00814634 75.05923467 7.00897547 77.19638171 7.01129532 79.33352661 C7.0138209 82.31482626 7.00998259 85.2960498 7.00439453 88.27734375 C7.00641876 89.16984833 7.00844299 90.06235291 7.01052856 90.98190308 C6.98926232 97.07323768 6.98926232 97.07323768 5.875 98.1875 C3.91969236 98.31298989 1.95929521 98.36325363 0 98.375 C-1.60488281 98.39626953 -1.60488281 98.39626953 -3.2421875 98.41796875 C-6.125 98.1875 -6.125 98.1875 -9.125 96.1875 C-9.42698061 93.17867674 -9.53423871 90.37500141 -9.51318359 87.36328125 C-9.51844055 86.44936615 -9.52369751 85.53545105 -9.52911377 84.59384155 C-9.54235516 81.56238895 -9.53356104 78.53145826 -9.5234375 75.5 C-9.52545704 73.40014545 -9.52836748 71.30029159 -9.53213501 69.20043945 C-9.53656398 64.79534236 -9.53010885 60.39042751 -9.51611328 55.98535156 C-9.49902116 50.32887771 -9.50885928 44.67283085 -9.52683067 39.01637268 C-9.53765302 34.67904421 -9.53422929 30.34181756 -9.5264473 26.00448608 C-9.524441 23.91840566 -9.52691954 21.83231609 -9.53388596 19.74624634 C-9.54147496 16.83448678 -9.52993211 13.92342604 -9.51318359 11.01171875 C-9.51925629 10.14308197 -9.52532898 9.27444519 -9.53158569 8.37948608 C-9.50595093 5.9831543 -9.50595093 5.9831543 -9.125 2.1875 C-5.62447109 -0.14618594 -4.12885663 -0.05471979 0 0 Z " fill="#191D1E" transform="translate(461.125,810.8125)"/>
<path d="M0 0 C1.0725 0.00515625 2.145 0.0103125 3.25 0.015625 C4.85875 0.00789062 4.85875 0.00789062 6.5 0 C9.25 0.265625 9.25 0.265625 11.25 2.265625 C11.44886124 5.23769494 11.52264641 8.11661531 11.50878906 11.08984375 C11.5122937 12.00375885 11.51579834 12.91767395 11.51940918 13.85928345 C11.52823649 16.89064045 11.52237381 19.92176548 11.515625 22.953125 C11.51697136 25.05297897 11.51891165 27.15283264 11.52142334 29.25268555 C11.52437596 33.65774498 11.52007251 38.06272341 11.51074219 42.46777344 C11.49934761 48.12416531 11.50590634 53.78036741 11.51788712 59.43675232 C11.52510198 63.77406249 11.5228195 68.11132741 11.51763153 72.44863892 C11.516294 74.53471906 11.51794635 76.62080326 11.52259064 78.70687866 C11.52764973 81.61849914 11.51995432 84.529809 11.50878906 87.44140625 C11.51283752 88.31004303 11.51688599 89.17867981 11.52105713 90.07363892 C11.47852772 96.03709728 11.47852772 96.03709728 9.25 98.265625 C6.5 98.49609375 6.5 98.49609375 3.25 98.453125 C2.1775 98.44667969 1.105 98.44023438 0 98.43359375 C-2.75 98.265625 -2.75 98.265625 -4.75 97.265625 C-4.79626496 84.91372068 -4.83183941 72.56183686 -4.85362434 60.20986366 C-4.86407805 54.474839 -4.87826612 48.73987345 -4.90087891 43.00488281 C-4.9225508 37.47413931 -4.93455666 31.94345281 -4.93975449 26.41267014 C-4.94346043 24.29867022 -4.95069682 22.18467355 -4.96146011 20.07069778 C-4.97589992 17.11818865 -4.9779811 14.16591745 -4.97705078 11.21337891 C-4.98424133 10.3322493 -4.99143188 9.45111969 -4.99884033 8.54328918 C-4.97120248 0.48017297 -4.97120248 0.48017297 0 0 Z " fill="#191D1E" transform="translate(837.75,810.734375)"/>
<path d="M0 0 C0.66 0 1.32 0 2 0 C5.24686626 12.13665494 8.36267574 24.28376833 11.09545898 36.54711914 C12.97887519 44.98503564 14.99473893 53.38885229 17.03320312 61.79052734 C17.27490234 62.78906738 17.51660156 63.78760742 17.765625 64.81640625 C17.97993164 65.69756104 18.19423828 66.57871582 18.41503906 67.48657227 C18.99523838 69.97954052 19.4980223 72.49011149 20 75 C7.46 75 -5.08 75 -18 75 C-16.87439036 64.86951321 -16.87439036 64.86951321 -15.984375 61.37890625 C-15.7879541 60.59902344 -15.5915332 59.81914063 -15.38916016 59.015625 C-15.1782373 58.20609375 -14.96731445 57.3965625 -14.75 56.5625 C-14.52747559 55.68980469 -14.30495117 54.81710937 -14.07568359 53.91796875 C-12.48174106 47.7174312 -10.77413411 41.55225918 -9.02758789 35.39331055 C-5.73993425 23.67149663 -2.91371612 11.81905307 0 0 Z " fill="#FBFBFB" transform="translate(596,615)"/>
<path d="M0 0 C3.88889425 1.29629808 4.166712 2.6003561 6.08203125 6.16015625 C6.67781982 7.25287842 7.2736084 8.34560059 7.88745117 9.47143555 C8.35808487 10.34945328 8.35808487 10.34945328 8.83822632 11.24520874 C10.49059547 14.32733656 12.1725257 17.39328097 13.8515625 20.4609375 C14.19412582 21.08862534 14.53668915 21.71631317 14.88963318 22.36302185 C18.9123844 29.71128672 23.16201153 36.92341731 27.4309082 44.13110352 C27.97320068 45.05076904 28.51549316 45.97043457 29.07421875 46.91796875 C29.54432373 47.70969482 30.01442871 48.5014209 30.4987793 49.31713867 C32.45464487 52.81250488 34.20874373 56.41748747 36 60 C28.41 60 20.82 60 13 60 C12.01 58.21335937 11.02 56.42671875 10 54.5859375 C9.014678 52.80988961 8.02935246 51.03384367 7.04394531 49.25784302 C6.00466352 47.38341104 4.96711032 45.5080297 3.9296875 43.63256836 C-0.35957122 35.88490167 -0.35957122 35.88490167 -4.8125 28.23046875 C-5.38291016 27.26971436 -5.38291016 27.26971436 -5.96484375 26.28955078 C-6.92467792 24.68816707 -7.89923049 23.09563026 -8.875 21.50390625 C-10.18684115 18.58414868 -9.9918961 17.93968229 -9 15 C-8.06030273 13.16894531 -8.06030273 13.16894531 -6.93359375 11.328125 C-6.3293457 10.33232422 -6.3293457 10.33232422 -5.71289062 9.31640625 C-5.29201172 8.63449219 -4.87113281 7.95257813 -4.4375 7.25 C-4.01275391 6.55261719 -3.58800781 5.85523438 -3.15039062 5.13671875 C-2.10489914 3.42164283 -1.05306649 1.71043527 0 0 Z " fill="#FBFBFB" transform="translate(578,374)"/>
<path d="M0 0 C3.96 -0.061875 7.92 -0.12375 12 -0.1875 C13.23234375 -0.21481201 14.4646875 -0.24212402 15.734375 -0.27026367 C22.17303448 -0.31874127 27.30028926 -0.14671531 33 3 C37.31510467 9.01215176 36.61745826 15.9115792 36 23 C34.98161048 27.24675356 33.72855864 29.51429424 30 32 C26.31427407 32.98526998 22.84633235 33.11716068 19.04296875 33.09765625 C18.04031982 33.09515869 17.0376709 33.09266113 16.00463867 33.09008789 C14.74498291 33.08098389 13.48532715 33.07187988 12.1875 33.0625 C8.165625 33.041875 4.14375 33.02125 0 33 C0 22.11 0 11.22 0 0 Z " fill="#F4F4F4" transform="translate(681,826)"/>
<path d="M0 0 C3.93412698 4.533613 6.78616993 9.56135261 9.75 14.75 C10.25660156 15.62527344 10.76320313 16.50054687 11.28515625 17.40234375 C15 23.86076482 15 23.86076482 15 25 C5.43 25 -4.14 25 -14 25 C-12.59848987 21.49622468 -11.29878858 18.59777184 -9.43359375 15.390625 C-8.94826172 14.55402344 -8.46292969 13.71742188 -7.96289062 12.85546875 C-7.45951172 11.99566406 -6.95613281 11.13585937 -6.4375 10.25 C-5.93025391 9.37472656 -5.42300781 8.49945313 -4.90039062 7.59765625 C-1.14223388 1.14223388 -1.14223388 1.14223388 0 0 Z " fill="#F8F8F8" transform="translate(558,409)"/>
</svg>
